<svg xmlns="http://www.w3.org/2000/svg" viewBox="0 0 512 512" xmlns:v="https://vecta.io/nano"><path d="M462.717 108.966a96.427 96.427 0 0 0-3.253-24.888h-12.47A84.767 84.767 0 1 1 402.809 32.7l6.498-10.16A96.625 96.625 0 0 0 270.64 93.251a62.57 62.57 0 0 0-98.406 51.358v18.733h-59.228a30.397 30.397 0 0 0-30.319 27.372l-27.01 263.632a30.478 30.478 0 0 0 30.32 33.584h297.748a30.478 30.478 0 0 0 30.319-33.584L388.319 203.05a96.849 96.849 0 0 0 74.398-94.084zm-278.483 35.643a50.587 50.587 0 0 1 85.139-36.999l-.017 1.356a96.117 96.117 0 0 0 16.152 53.438v.938H184.234zm107.274 68.452a9.501 9.501 0 1 1-9.501 9.5 9.511 9.511 0 0 1 9.501-9.5zm-113.274 0a9.501 9.501 0 1 1-9.501 9.5 9.511 9.511 0 0 1 9.501-9.5zm223.893 242.508a18.478 18.478 0 0 1-18.382 20.362h-6.729l-37.349-34.983a45.856 45.856 0 0 0-31.455-12.431H157.453a45.854 45.854 0 0 0-31.455 12.431l-37.349 34.983h-2.652a18.479 18.479 0 0 1-18.382-20.362l27.009-263.632a18.429 18.429 0 0 1 18.382-16.595h59.228v26.587a21.501 21.501 0 1 0 12 0v-26.587h101.274v26.587a21.501 21.501 0 1 0 12 0v-24.833a96.539 96.539 0 0 0 78.957 27.987zm-17.365-303.166a11.853 11.853 0 1 0 23.706.038 11.846 11.846 0 0 0-6.966-10.79l.021-3.11a6.53 6.53 0 0 0-6.486-6.574l-41.455-.28-3.273-10.709 43.087-2.844a11.741 11.741 0 0 0 10.647-9.696l2.214-14.536a11.474 11.474 0 0 0-.481-5.95 11.794 11.794 0 0 0-11.089-7.812l-56.448-1.259-4.424-11.871a5.496 5.496 0 0 0-5.256-3.889H308.93v10.993h15.561l19.759 64.649a5.477 5.477 0 0 0 1.3 2.206 11.844 11.844 0 1 0 9.661 1.723l34.36.232a11.823 11.823 0 0 0-4.809 9.48zm44.914-83.054h12V53.896h15.453v-12h-15.453V26.442h-12v15.454h-15.454v12h15.454v15.453z"/></svg>